<svg xmlns="http://www.w3.org/2000/svg" width="1359.5" height="1360.961" viewBox="0 0 1359.5 1360.961">
  <path id="Subtraction_1" data-name="Subtraction 1" d="M785.5,1223.789c-20.2,0-40.638-.492-60.756-1.461-19.245-.927-38.7-2.316-57.828-4.128-35.594-3.372-71.367-8.33-106.325-14.735A1186.97,1186.97,0,0,1,389.1,1158.75c-21.573-7.418-42.761-15.453-62.977-23.882-16.175-6.744-31.765-13.753-46.339-20.833-24.745-12.021-38.251-20.243-38.385-20.325a284.914,284.914,0,0,1-28.119-16.332c-9.971-6.447-20.012-13.562-29.844-21.147-12.291-9.482-24.286-19.728-35.653-30.453A459.766,459.766,0,0,1,73.2,935c-5.942-9.519-11.578-19.368-16.752-29.274C51,895.3,45.915,884.526,41.334,873.7c-4.8-11.354-9.187-23.077-13.026-34.843-4.014-12.3-7.547-24.991-10.5-37.719C4.3,742.939-1.424,695.088.3,654.851a274.749,274.749,0,0,1,2.874-30A216.233,216.233,0,0,1,9.2,597.378a179.759,179.759,0,0,1,9.319-25.016,161.488,161.488,0,0,1,12.735-22.611A158.98,158.98,0,0,1,45.121,532.1a169.148,169.148,0,0,1,16.6-15.935A192.273,192.273,0,0,1,81.13,501.908,230.518,230.518,0,0,1,103.441,489.3c7.89-3.912,16.4-7.611,25.294-10.995s18.43-6.552,28.359-9.421c9.913-2.865,20.514-5.517,31.508-7.884,10.965-2.36,22.653-4.508,34.74-6.383,11.213-1.739,22.93-3.054,34.826-3.908,11.446-.822,23.357-1.239,35.4-1.239a616.415,616.415,0,0,1,72.331,4.485c22.765,2.705,46.624,6.683,70.915,11.823a1061.223,1061.223,0,0,1,127.436,35.877c17.148,5.951,34.458,12.4,51.449,19.162,13.59,5.409,27.01,11.033,39.889,16.715,22.008,9.71,34.828,16.243,34.955,16.308a81.718,81.718,0,0,0,14.824,8.891,94.361,94.361,0,0,0,16.69,6.112,84.245,84.245,0,0,0,21.241,2.778,81.69,81.69,0,0,0,37.006-9.01,105.9,105.9,0,0,0,19.987-13.262,149.438,149.438,0,0,0,20.325-20.877,227.808,227.808,0,0,0,20.173-29.825,357.331,357.331,0,0,0,19.531-40.105c6.5-15.6,12.695-33,18.4-51.719,6.02-19.75,11.666-41.507,16.78-64.666,3.774-17.091,8.019-33.2,12.619-47.877a389.327,389.327,0,0,1,14.48-39.171,260.6,260.6,0,0,1,16.037-31.181,177.009,177.009,0,0,1,17.287-23.906,126.5,126.5,0,0,1,18.232-17.348,99.665,99.665,0,0,1,18.871-11.5,90.018,90.018,0,0,1,19.2-6.378,93.625,93.625,0,0,1,19.232-1.967,113.4,113.4,0,0,1,28.039,3.7V1194.4c-23.961,5.139-48.281,9.664-72.284,13.452-23.171,3.656-46.673,6.724-69.854,9.117-22.331,2.306-44.963,4.049-67.268,5.18-21.437,1.088-43.147,1.64-64.525,1.641H785.5Z" transform="translate(150 -12.828)" fill="#6cfc52" opacity="0.758"/>
</svg>
