<svg id="Instagram" xmlns="http://www.w3.org/2000/svg" width="29.134" height="29.134" viewBox="0 0 29.134 29.134">
  <path id="Path_3" data-name="Path 3" d="M14.567,2.59a44.666,44.666,0,0,1,5.827.162,7.507,7.507,0,0,1,2.752.486A5.684,5.684,0,0,1,25.9,5.989a7.507,7.507,0,0,1,.486,2.752c0,1.457.162,1.942.162,5.827a44.666,44.666,0,0,1-.162,5.827,7.507,7.507,0,0,1-.486,2.752A5.684,5.684,0,0,1,23.146,25.9a7.507,7.507,0,0,1-2.752.486c-1.457,0-1.942.162-5.827.162a44.666,44.666,0,0,1-5.827-.162A7.507,7.507,0,0,1,5.989,25.9a5.684,5.684,0,0,1-2.752-2.752,7.507,7.507,0,0,1-.486-2.752c0-1.457-.162-1.942-.162-5.827A44.666,44.666,0,0,1,2.752,8.74a7.507,7.507,0,0,1,.486-2.752A5.813,5.813,0,0,1,4.37,4.37,2.736,2.736,0,0,1,5.989,3.237,7.507,7.507,0,0,1,8.74,2.752a44.666,44.666,0,0,1,5.827-.162m0-2.59A47.824,47.824,0,0,0,8.578.162,9.992,9.992,0,0,0,5.018.809a6.336,6.336,0,0,0-2.59,1.619A6.336,6.336,0,0,0,.809,5.018,7.375,7.375,0,0,0,.162,8.578,47.824,47.824,0,0,0,0,14.567a47.824,47.824,0,0,0,.162,5.989,9.992,9.992,0,0,0,.647,3.561,6.336,6.336,0,0,0,1.619,2.59,6.336,6.336,0,0,0,2.59,1.619,9.992,9.992,0,0,0,3.561.647,47.824,47.824,0,0,0,5.989.162,47.824,47.824,0,0,0,5.989-.162,9.992,9.992,0,0,0,3.561-.647,6.791,6.791,0,0,0,4.208-4.208,9.992,9.992,0,0,0,.647-3.561c0-1.619.162-2.1.162-5.989a47.824,47.824,0,0,0-.162-5.989,9.992,9.992,0,0,0-.647-3.561,6.336,6.336,0,0,0-1.619-2.59A6.336,6.336,0,0,0,24.117.809,9.992,9.992,0,0,0,20.556.162,47.824,47.824,0,0,0,14.567,0m0,7.122a7.326,7.326,0,0,0-7.445,7.445,7.445,7.445,0,1,0,7.445-7.445m0,12.3a4.769,4.769,0,0,1-4.856-4.856,4.769,4.769,0,0,1,4.856-4.856,4.769,4.769,0,0,1,4.856,4.856,4.769,4.769,0,0,1-4.856,4.856M22.336,5.018a1.78,1.78,0,1,0,1.78,1.78,1.8,1.8,0,0,0-1.78-1.78" fill-rule="evenodd"/>
</svg>
